<svg width="53" height="33" viewBox="0 0 53 33" fill="none" xmlns="http://www.w3.org/2000/svg">
<rect x="10.7274" y="1" width="31" height="31" rx="15.5" fill="url(#paint0_linear_348_531)"/>
<rect x="10.7274" y="1" width="31" height="31" rx="15.5" stroke="#3DDB27"/>
<path d="M26.2274 12.9062C28.1962 12.9062 29.8212 14.5312 29.8212 16.5C29.8212 18.5 28.1962 20.0938 26.2274 20.0938C24.2274 20.0938 22.6337 18.5 22.6337 16.5C22.6337 14.5312 24.2274 12.9062 26.2274 12.9062ZM26.2274 18.8438C27.5087 18.8438 28.5399 17.8125 28.5399 16.5C28.5399 15.2188 27.5087 14.1875 26.2274 14.1875C24.9149 14.1875 23.8837 15.2188 23.8837 16.5C23.8837 17.8125 24.9462 18.8438 26.2274 18.8438ZM30.7899 12.7812C30.7899 13.25 30.4149 13.625 29.9462 13.625C29.4774 13.625 29.1024 13.25 29.1024 12.7812C29.1024 12.3125 29.4774 11.9375 29.9462 11.9375C30.4149 11.9375 30.7899 12.3125 30.7899 12.7812ZM33.1649 13.625C33.2274 14.7812 33.2274 18.25 33.1649 19.4062C33.1024 20.5312 32.8524 21.5 32.0399 22.3438C31.2274 23.1562 30.2274 23.4062 29.1024 23.4688C27.9462 23.5312 24.4774 23.5312 23.3212 23.4688C22.1962 23.4062 21.2274 23.1562 20.3837 22.3438C19.5712 21.5 19.3212 20.5312 19.2587 19.4062C19.1962 18.25 19.1962 14.7812 19.2587 13.625C19.3212 12.5 19.5712 11.5 20.3837 10.6875C21.2274 9.875 22.1962 9.625 23.3212 9.5625C24.4774 9.5 27.9462 9.5 29.1024 9.5625C30.2274 9.625 31.2274 9.875 32.0399 10.6875C32.8524 11.5 33.1024 12.5 33.1649 13.625ZM31.6649 20.625C32.0399 19.7188 31.9462 17.5312 31.9462 16.5C31.9462 15.5 32.0399 13.3125 31.6649 12.375C31.4149 11.7812 30.9462 11.2812 30.3524 11.0625C29.4149 10.6875 27.2274 10.7812 26.2274 10.7812C25.1962 10.7812 23.0087 10.6875 22.1024 11.0625C21.4774 11.3125 21.0087 11.7812 20.7587 12.375C20.3837 13.3125 20.4774 15.5 20.4774 16.5C20.4774 17.5312 20.3837 19.7188 20.7587 20.625C21.0087 21.25 21.4774 21.7188 22.1024 21.9688C23.0087 22.3438 25.1962 22.25 26.2274 22.25C27.2274 22.25 29.4149 22.3438 30.3524 21.9688C30.9462 21.7188 31.4462 21.25 31.6649 20.625Z" fill="white"/>
<defs>
<linearGradient id="paint0_linear_348_531" x1="10.2274" y1="32.5" x2="42.2274" y2="0.5" gradientUnits="userSpaceOnUse">
<stop stop-color="#359028"/>
<stop offset="0.85" stop-color="#276033"/>
<stop offset="1" stop-color="#FFFCFB"/>
</linearGradient>
</defs>
</svg>
