<svg width="53" height="33" viewBox="0 0 53 33" fill="none" xmlns="http://www.w3.org/2000/svg">
<rect x="10.7274" y="1" width="31" height="31" rx="15.5" fill="url(#paint0_linear_348_535)"/>
<rect x="10.7274" y="1" width="31" height="31" rx="15.5" stroke="#34C759"/>
<path d="M32.2274 9.5C32.7587 9.5 33.2274 9.96875 33.2274 10.5312V22.5C33.2274 23.0625 32.7587 23.5 32.2274 23.5H20.1962C19.6649 23.5 19.2274 23.0625 19.2274 22.5V10.5312C19.2274 9.96875 19.6649 9.5 20.1962 9.5H32.2274ZM23.4462 21.5V14.8438H21.3837V21.5H23.4462ZM22.4149 13.9062C23.0712 13.9062 23.6024 13.375 23.6024 12.7188C23.6024 12.0625 23.0712 11.5 22.4149 11.5C21.7274 11.5 21.1962 12.0625 21.1962 12.7188C21.1962 13.375 21.7274 13.9062 22.4149 13.9062ZM31.2274 21.5V17.8438C31.2274 16.0625 30.8212 14.6562 28.7274 14.6562C27.7274 14.6562 27.0399 15.2188 26.7587 15.75H26.7274V14.8438H24.7587V21.5H26.8212V18.2188C26.8212 17.3438 26.9774 16.5 28.0712 16.5C29.1337 16.5 29.1337 17.5 29.1337 18.25V21.5H31.2274Z" fill="white"/>
<defs>
<linearGradient id="paint0_linear_348_535" x1="10.2274" y1="32.5" x2="42.2274" y2="0.5" gradientUnits="userSpaceOnUse">
<stop stop-color="#359028"/>
<stop offset="0.85" stop-color="#02542D"/>
<stop offset="1" stop-color="#FFFCFB"/>
</linearGradient>
</defs>
</svg>
