<?xml version="1.0" encoding="utf-8"?>
<svg viewBox="153.982 198.0432 13.641 8.4312" xmlns="http://www.w3.org/2000/svg">
  <path d="M 162.648 198.944 L 158.959 198.944 L 158.959 205.573 L 162.648 205.573 L 162.648 198.944 Z" fill="#FF5F00" transform="matrix(1, 0, 0, 1, 0, -1.7763568394002505e-15)"/>
  <path d="M 159.192 202.259 C 159.192 201.621 159.336 200.991 159.615 200.416 C 159.894 199.842 160.3 199.339 160.802 198.945 C 160.181 198.456 159.434 198.152 158.647 198.068 C 157.861 197.983 157.067 198.122 156.355 198.468 C 155.644 198.813 155.044 199.352 154.624 200.023 C 154.205 200.693 153.982 201.468 153.982 202.259 C 153.982 203.05 154.205 203.825 154.624 204.495 C 155.044 205.166 155.644 205.705 156.355 206.05 C 157.067 206.396 157.861 206.535 158.647 206.45 C 159.434 206.366 160.181 206.062 160.802 205.573 C 160.3 205.179 159.894 204.676 159.615 204.102 C 159.337 203.527 159.192 202.897 159.192 202.259 Z" fill="#EB001B" transform="matrix(1, 0, 0, 1, 0, -1.7763568394002505e-15)"/>
  <path d="M 167.623 202.259 C 167.623 203.05 167.401 203.825 166.981 204.495 C 166.562 205.166 165.962 205.704 165.251 206.05 C 164.539 206.396 163.745 206.534 162.958 206.45 C 162.172 206.366 161.425 206.062 160.803 205.573 C 161.305 205.178 161.711 204.675 161.989 204.101 C 162.268 203.527 162.413 202.897 162.413 202.259 C 162.413 201.62 162.268 200.991 161.989 200.416 C 161.711 199.842 161.305 199.339 160.803 198.945 C 161.425 198.456 162.172 198.152 162.958 198.067 C 163.745 197.983 164.539 198.122 165.251 198.467 C 165.962 198.813 166.562 199.352 166.981 200.022 C 167.401 200.693 167.623 201.468 167.623 202.259 Z" fill="#F79E1B" transform="matrix(1, 0, 0, 1, 0, -1.7763568394002505e-15)"/>
</svg>
