<svg xmlns="http://www.w3.org/2000/svg" width="25" height="25" viewBox="0 0 25 25" fill="none">
  <path d="M20.3292 21.5L14.0292 15.2C13.5292 15.6 12.9542 15.9167 12.3042 16.15C11.6542 16.3833 10.9626 16.5 10.2292 16.5C8.41258 16.5 6.87508 15.8708 5.61675 14.6125C4.35841 13.3542 3.72925 11.8167 3.72925 10C3.72925 8.18333 4.35841 6.64583 5.61675 5.3875C6.87508 4.12917 8.41258 3.5 10.2292 3.5C12.0459 3.5 13.5834 4.12917 14.8417 5.3875C16.1001 6.64583 16.7292 8.18333 16.7292 10C16.7292 10.7333 16.6126 11.425 16.3792 12.075C16.1459 12.725 15.8292 13.3 15.4292 13.8L21.7292 20.1L20.3292 21.5ZM10.2292 14.5C11.4792 14.5 12.5417 14.0625 13.4167 13.1875C14.2917 12.3125 14.7292 11.25 14.7292 10C14.7292 8.75 14.2917 7.6875 13.4167 6.8125C12.5417 5.9375 11.4792 5.5 10.2292 5.5C8.97925 5.5 7.91675 5.9375 7.04175 6.8125C6.16675 7.6875 5.72925 8.75 5.72925 10C5.72925 11.25 6.16675 12.3125 7.04175 13.1875C7.91675 14.0625 8.97925 14.5 10.2292 14.5Z" fill="#1D1B20"/>
</svg>
