<?xml version="1.0" encoding="utf-8"?>
<svg viewBox="129.444 114.703 21.546 6.958" xmlns="http://www.w3.org/2000/svg">
  <path d="M 137.625 114.826 L 134.804 121.556 L 132.963 121.556 L 131.575 116.185 C 131.491 115.854 131.418 115.733 131.161 115.594 C 130.743 115.366 130.051 115.153 129.444 115.021 L 129.485 114.826 L 132.447 114.826 C 132.825 114.826 133.165 115.078 133.25 115.512 L 133.983 119.407 L 135.795 114.826 L 137.625 114.826 Z M 144.836 119.359 C 144.843 117.583 142.379 117.485 142.396 116.691 C 142.402 116.45 142.632 116.193 143.135 116.128 C 143.384 116.095 144.072 116.07 144.852 116.429 L 145.158 115.002 C 144.738 114.849 144.199 114.703 143.529 114.703 C 141.808 114.703 140.597 115.618 140.586 116.928 C 140.575 117.896 141.45 118.437 142.11 118.759 C 142.789 119.089 143.017 119.301 143.014 119.596 C 143.009 120.047 142.473 120.247 141.972 120.254 C 141.096 120.268 140.589 120.017 140.184 119.829 L 139.868 121.304 C 140.275 121.49 141.026 121.653 141.805 121.661 C 143.634 121.661 144.83 120.758 144.836 119.359 Z M 149.38 121.556 L 150.99 121.556 L 149.585 114.826 L 148.099 114.826 C 147.94 114.825 147.784 114.871 147.652 114.959 C 147.52 115.047 147.418 115.173 147.358 115.32 L 144.745 121.556 L 146.573 121.556 L 146.936 120.551 L 149.169 120.551 L 149.38 121.556 Z M 147.438 119.171 L 148.354 116.644 L 148.881 119.171 L 147.438 119.171 Z M 140.112 114.826 L 138.673 121.556 L 136.931 121.556 L 138.372 114.826 L 140.112 114.826 Z" fill="#1434CB" transform="matrix(1, 0, 0, 1, 0, 3.552713678800501e-15)"/>
</svg>
