<svg width="194" height="55" viewBox="0 0 194 55" fill="none" xmlns="http://www.w3.org/2000/svg">
<g clip-path="url(#clip0_25_1500)">
<g filter="url(#filter0_d_25_1500)">
<path d="M10.8581 20V8.70019H6.48741V7.56311H16.5435V8.70019H12.1728V20H10.8581ZM21.3678 20.0888C20.3966 20.0888 19.5437 19.8875 18.8094 19.4848C18.075 19.0702 17.5005 18.5076 17.086 17.7969C16.6714 17.0744 16.4641 16.2512 16.4641 15.3273C16.4641 14.4034 16.6596 13.5861 17.0504 12.8754C17.4532 12.1648 17.998 11.6081 18.685 11.2053C19.3838 10.7908 20.1656 10.5835 21.0302 10.5835C21.9068 10.5835 22.6826 10.7849 23.3577 11.1876C24.0447 11.5784 24.5836 12.1351 24.9745 12.8577C25.3654 13.5683 25.5608 14.3916 25.5608 15.3273C25.5608 15.3865 25.5549 15.4517 25.5431 15.5227C25.5431 15.5819 25.5431 15.6471 25.5431 15.7182H17.4235V14.7765H24.8679L24.3704 15.1496C24.3704 14.4745 24.2224 13.8763 23.9263 13.3551C23.642 12.8221 23.2511 12.4076 22.7536 12.1115C22.2562 11.8153 21.6817 11.6673 21.0302 11.6673C20.3906 11.6673 19.8162 11.8153 19.3069 12.1115C18.7975 12.4076 18.4007 12.8221 18.1165 13.3551C17.8322 13.8882 17.6901 14.4982 17.6901 15.1851V15.3806C17.6901 16.0913 17.844 16.719 18.152 17.2639C18.4718 17.7969 18.9101 18.2174 19.4668 18.5253C20.0353 18.8215 20.6808 18.9695 21.4034 18.9695C21.9719 18.9695 22.499 18.8688 22.9846 18.6675C23.4821 18.4661 23.9085 18.1582 24.2638 17.7436L24.9745 18.5609C24.56 19.0583 24.0388 19.4374 23.411 19.698C22.7951 19.9585 22.114 20.0888 21.3678 20.0888ZM28.1284 20V6.81689H29.3899V20H28.1284ZM36.8619 20.0888C35.8906 20.0888 35.0378 19.8875 34.3034 19.4848C33.5691 19.0702 32.9946 18.5076 32.58 17.7969C32.1655 17.0744 31.9582 16.2512 31.9582 15.3273C31.9582 14.4034 32.1536 13.5861 32.5445 12.8754C32.9472 12.1648 33.4921 11.6081 34.1791 11.2053C34.8779 10.7908 35.6597 10.5835 36.5243 10.5835C37.4008 10.5835 38.1766 10.7849 38.8518 11.1876C39.5388 11.5784 40.0777 12.1351 40.4686 12.8577C40.8595 13.5683 41.0549 14.3916 41.0549 15.3273C41.0549 15.3865 41.049 15.4517 41.0371 15.5227C41.0371 15.5819 41.0371 15.6471 41.0371 15.7182H32.9176V14.7765H40.362L39.8645 15.1496C39.8645 14.4745 39.7164 13.8763 39.4203 13.3551C39.1361 12.8221 38.7452 12.4076 38.2477 12.1115C37.7502 11.8153 37.1758 11.6673 36.5243 11.6673C35.8847 11.6673 35.3102 11.8153 34.8009 12.1115C34.2916 12.4076 33.8948 12.8221 33.6105 13.3551C33.3263 13.8882 33.1841 14.4982 33.1841 15.1851V15.3806C33.1841 16.0913 33.3381 16.719 33.6461 17.2639C33.9659 17.7969 34.4041 18.2174 34.9608 18.5253C35.5294 18.8215 36.1749 18.9695 36.8974 18.9695C37.466 18.9695 37.9931 18.8688 38.4787 18.6675C38.9762 18.4661 39.4026 18.1582 39.7579 17.7436L40.4686 18.5609C40.054 19.0583 39.5329 19.4374 38.9051 19.698C38.2892 19.9585 37.6081 20.0888 36.8619 20.0888ZM47.4957 20.0888C46.5718 20.0888 45.7427 19.8875 45.0083 19.4848C44.2858 19.0702 43.7173 18.5076 43.3027 17.7969C42.8881 17.0744 42.6809 16.2512 42.6809 15.3273C42.6809 14.3916 42.8881 13.5683 43.3027 12.8577C43.7173 12.147 44.2858 11.5903 45.0083 11.1876C45.7427 10.7849 46.5718 10.5835 47.4957 10.5835C48.2893 10.5835 49.0059 10.7375 49.6455 11.0454C50.2851 11.3534 50.7885 11.8153 51.1557 12.4313L50.2141 13.0709C49.8943 12.5971 49.4975 12.2477 49.0237 12.0226C48.5499 11.7976 48.0346 11.685 47.4779 11.685C46.8146 11.685 46.2165 11.839 45.6835 12.147C45.1505 12.4431 44.73 12.8636 44.422 13.4084C44.1141 13.9533 43.9601 14.5929 43.9601 15.3273C43.9601 16.0617 44.1141 16.7013 44.422 17.2461C44.73 17.791 45.1505 18.2174 45.6835 18.5253C46.2165 18.8215 46.8146 18.9695 47.4779 18.9695C48.0346 18.9695 48.5499 18.857 49.0237 18.6319C49.4975 18.4069 49.8943 18.0634 50.2141 17.6015L51.1557 18.2411C50.7885 18.8451 50.2851 19.3071 49.6455 19.6269C49.0059 19.9349 48.2893 20.0888 47.4957 20.0888ZM57.2798 20.0888C56.3796 20.0888 55.5682 19.8875 54.8457 19.4848C54.135 19.0702 53.5724 18.5076 53.1578 17.7969C52.7433 17.0744 52.536 16.2512 52.536 15.3273C52.536 14.3916 52.7433 13.5683 53.1578 12.8577C53.5724 12.147 54.135 11.5903 54.8457 11.1876C55.5564 10.7849 56.3677 10.5835 57.2798 10.5835C58.2037 10.5835 59.0209 10.7849 59.7316 11.1876C60.4541 11.5903 61.0168 12.147 61.4195 12.8577C61.834 13.5683 62.0413 14.3916 62.0413 15.3273C62.0413 16.2512 61.834 17.0744 61.4195 17.7969C61.0168 18.5076 60.4541 19.0702 59.7316 19.4848C59.0091 19.8875 58.1918 20.0888 57.2798 20.0888ZM57.2798 18.9695C57.9549 18.9695 58.5531 18.8215 59.0742 18.5253C59.5954 18.2174 60.004 17.791 60.3002 17.2461C60.6081 16.6894 60.7621 16.0498 60.7621 15.3273C60.7621 14.5929 60.6081 13.9533 60.3002 13.4084C60.004 12.8636 59.5954 12.4431 59.0742 12.147C58.5531 11.839 57.9608 11.685 57.2975 11.685C56.6342 11.685 56.042 11.839 55.5208 12.147C54.9997 12.4431 54.5851 12.8636 54.2771 13.4084C53.9692 13.9533 53.8152 14.5929 53.8152 15.3273C53.8152 16.0498 53.9692 16.6894 54.2771 17.2461C54.5851 17.791 54.9997 18.2174 55.5208 18.5253C56.042 18.8215 56.6283 18.9695 57.2798 18.9695ZM76.2718 10.5835C77.0299 10.5835 77.6873 10.7316 78.244 11.0277C78.8125 11.3119 79.2508 11.7502 79.5587 12.3424C79.8785 12.9347 80.0385 13.6809 80.0385 14.5811V20H78.777V14.7054C78.777 13.7223 78.5401 12.982 78.0663 12.4846C77.6044 11.9752 76.947 11.7206 76.0942 11.7206C75.4546 11.7206 74.8979 11.8568 74.4241 12.1292C73.9621 12.3898 73.6009 12.7748 73.3403 13.2841C73.0916 13.7816 72.9672 14.3856 72.9672 15.0963V20H71.7057V14.7054C71.7057 13.7223 71.4688 12.982 70.9951 12.4846C70.5213 11.9752 69.858 11.7206 69.0051 11.7206C68.3774 11.7206 67.8266 11.8568 67.3528 12.1292C66.879 12.3898 66.5118 12.7748 66.2513 13.2841C66.0025 13.7816 65.8782 14.3856 65.8782 15.0963V20H64.6167V10.6723H65.8249V13.1952L65.6294 12.7511C65.9137 12.0759 66.3697 11.5488 66.9975 11.1698C67.6371 10.7789 68.3892 10.5835 69.2539 10.5835C70.1659 10.5835 70.9417 10.8145 71.5814 11.2764C72.221 11.7265 72.6355 12.4076 72.8251 13.3196L72.3276 13.1242C72.6 12.3661 73.0797 11.7561 73.7667 11.2942C74.4655 10.8204 75.3006 10.5835 76.2718 10.5835ZM89.5485 13.1242H96.1223V14.2435H89.5485V13.1242ZM89.6906 18.8629H97.1705V20H88.3759V7.56311H96.904V8.70019H89.6906V18.8629ZM102.684 20.0888C101.807 20.0888 101.132 19.8519 100.658 19.3782C100.184 18.9044 99.9475 18.2351 99.9475 17.3705V8.61136H101.209V17.2994C101.209 17.8443 101.345 18.2648 101.618 18.5609C101.902 18.857 102.305 19.005 102.826 19.005C103.382 19.005 103.844 18.8451 104.212 18.5253L104.656 19.4315C104.407 19.6565 104.105 19.8223 103.75 19.9289C103.406 20.0355 103.051 20.0888 102.684 20.0888ZM98.2774 11.7206V10.6723H104.052V11.7206H98.2774ZM110.808 20.0888C110.014 20.0888 109.321 19.9408 108.729 19.6447C108.137 19.3485 107.675 18.9044 107.343 18.3121C107.023 17.7199 106.863 16.9796 106.863 16.0913V10.6723H108.125V15.9491C108.125 16.9441 108.368 17.6962 108.853 18.2055C109.351 18.703 110.044 18.9517 110.932 18.9517C111.583 18.9517 112.146 18.8215 112.62 18.5609C113.105 18.2884 113.473 17.8976 113.721 17.3883C113.982 16.8789 114.112 16.2689 114.112 15.5583V10.6723H115.374V20H114.166V17.4416L114.361 17.9035C114.065 18.5905 113.603 19.1294 112.975 19.5203C112.359 19.8993 111.637 20.0888 110.808 20.0888ZM122.603 20.0888C121.714 20.0888 120.915 19.8875 120.204 19.4848C119.505 19.082 118.954 18.5253 118.552 17.8147C118.149 17.0921 117.948 16.263 117.948 15.3273C117.948 14.3797 118.149 13.5506 118.552 12.8399C118.954 12.1292 119.505 11.5784 120.204 11.1876C120.915 10.7849 121.714 10.5835 122.603 10.5835C123.42 10.5835 124.148 10.7671 124.788 11.1343C125.439 11.5015 125.955 12.0404 126.334 12.7511C126.725 13.4499 126.92 14.3086 126.92 15.3273C126.92 16.3341 126.73 17.1928 126.351 17.9035C125.972 18.6142 125.457 19.159 124.806 19.5381C124.166 19.9052 123.432 20.0888 122.603 20.0888ZM122.691 18.9695C123.355 18.9695 123.947 18.8215 124.468 18.5253C125.001 18.2174 125.416 17.791 125.712 17.2461C126.02 16.6894 126.174 16.0498 126.174 15.3273C126.174 14.5929 126.02 13.9533 125.712 13.4084C125.416 12.8636 125.001 12.4431 124.468 12.147C123.947 11.839 123.355 11.685 122.691 11.685C122.04 11.685 121.454 11.839 120.933 12.147C120.411 12.4431 119.997 12.8636 119.689 13.4084C119.381 13.9533 119.227 14.5929 119.227 15.3273C119.227 16.0498 119.381 16.6894 119.689 17.2461C119.997 17.791 120.411 18.2174 120.933 18.5253C121.454 18.8215 122.04 18.9695 122.691 18.9695ZM126.209 20V17.1928L126.334 15.3095L126.156 13.4262V6.81689H127.417V20H126.209ZM134.893 20.0888C133.921 20.0888 133.069 19.8875 132.334 19.4848C131.6 19.0702 131.025 18.5076 130.611 17.7969C130.196 17.0744 129.989 16.2512 129.989 15.3273C129.989 14.4034 130.184 13.5861 130.575 12.8754C130.978 12.1648 131.523 11.6081 132.21 11.2053C132.909 10.7908 133.69 10.5835 134.555 10.5835C135.432 10.5835 136.207 10.7849 136.883 11.1876C137.57 11.5784 138.108 12.1351 138.499 12.8577C138.89 13.5683 139.086 14.3916 139.086 15.3273C139.086 15.3865 139.08 15.4517 139.068 15.5227C139.068 15.5819 139.068 15.6471 139.068 15.7182H130.948V14.7765H138.393L137.895 15.1496C137.895 14.4745 137.747 13.8763 137.451 13.3551C137.167 12.8221 136.776 12.4076 136.278 12.1115C135.781 11.8153 135.207 11.6673 134.555 11.6673C133.915 11.6673 133.341 11.8153 132.832 12.1115C132.322 12.4076 131.926 12.8221 131.641 13.3551C131.357 13.8882 131.215 14.4982 131.215 15.1851V15.3806C131.215 16.0913 131.369 16.719 131.677 17.2639C131.997 17.7969 132.435 18.2174 132.992 18.5253C133.56 18.8215 134.206 18.9695 134.928 18.9695C135.497 18.9695 136.024 18.8688 136.509 18.6675C137.007 18.4661 137.433 18.1582 137.789 17.7436L138.499 18.5609C138.085 19.0583 137.564 19.4374 136.936 19.698C136.32 19.9585 135.639 20.0888 134.893 20.0888ZM33.817 47V34.5631H38.4719C39.5261 34.5631 40.4322 34.7349 41.1903 35.0783C41.9484 35.41 42.5287 35.8956 42.9315 36.5352C43.346 37.163 43.5533 37.927 43.5533 38.8272C43.5533 39.7037 43.346 40.4617 42.9315 41.1014C42.5287 41.7291 41.9484 42.2148 41.1903 42.5583C40.4322 42.9017 39.5261 43.0735 38.4719 43.0735H34.5454L35.1318 42.4517V47H33.817ZM35.1318 42.5583L34.5454 41.9186H38.4364C39.6801 41.9186 40.6218 41.6521 41.2614 41.1191C41.9128 40.5743 42.2385 39.8103 42.2385 38.8272C42.2385 37.8322 41.9128 37.0623 41.2614 36.5175C40.6218 35.9726 39.6801 35.7002 38.4364 35.7002H34.5454L35.1318 35.0783V42.5583ZM45.9041 47V37.6723H47.1123V40.213L46.9879 39.7688C47.2485 39.0582 47.6867 38.5192 48.3026 38.152C48.9186 37.773 49.6825 37.5835 50.5946 37.5835V38.8094C50.5472 38.8094 50.4998 38.8094 50.4525 38.8094C50.4051 38.7976 50.3577 38.7917 50.3103 38.7917C49.3272 38.7917 48.5573 39.0937 48.0006 39.6978C47.4439 40.29 47.1656 41.1369 47.1656 42.2384V47H45.9041ZM56.6118 47.0888C55.7116 47.0888 54.9002 46.8875 54.1777 46.4848C53.467 46.0702 52.9044 45.5076 52.4898 44.7969C52.0753 44.0744 51.868 43.2512 51.868 42.3273C51.868 41.3916 52.0753 40.5683 52.4898 39.8577C52.9044 39.147 53.467 38.5903 54.1777 38.1876C54.8884 37.7849 55.6997 37.5835 56.6118 37.5835C57.5356 37.5835 58.3529 37.7849 59.0636 38.1876C59.7861 38.5903 60.3488 39.147 60.7515 39.8577C61.166 40.5683 61.3733 41.3916 61.3733 42.3273C61.3733 43.2512 61.166 44.0744 60.7515 44.7969C60.3488 45.5076 59.7861 46.0702 59.0636 46.4848C58.3411 46.8875 57.5238 47.0888 56.6118 47.0888ZM56.6118 45.9695C57.2869 45.9695 57.8851 45.8215 58.4062 45.5253C58.9274 45.2174 59.336 44.791 59.6322 44.2461C59.9401 43.6894 60.0941 43.0498 60.0941 42.3273C60.0941 41.5929 59.9401 40.9533 59.6322 40.4084C59.336 39.8636 58.9274 39.4431 58.4062 39.147C57.8851 38.839 57.2928 38.685 56.6295 38.685C55.9662 38.685 55.374 38.839 54.8528 39.147C54.3317 39.4431 53.9171 39.8636 53.6091 40.4084C53.3012 40.9533 53.1472 41.5929 53.1472 42.3273C53.1472 43.0498 53.3012 43.6894 53.6091 44.2461C53.9171 44.791 54.3317 45.2174 54.8528 45.5253C55.374 45.8215 55.9603 45.9695 56.6118 45.9695ZM68.8652 47V34.5631H74.2308C75.6166 34.5631 76.6886 34.8415 77.4466 35.3982C78.2165 35.9549 78.6015 36.7425 78.6015 37.7612C78.6015 38.4363 78.4416 39.0049 78.1218 39.4668C77.8138 39.9287 77.3874 40.2782 76.8425 40.515C76.3095 40.7519 75.7232 40.8704 75.0836 40.8704L75.3856 40.444C76.1792 40.444 76.8603 40.5683 77.4288 40.8171C78.0092 41.054 78.4593 41.4152 78.7791 41.9009C79.0989 42.3747 79.2588 42.9669 79.2588 43.6776C79.2588 44.7317 78.868 45.549 78.0862 46.1294C77.3163 46.7098 76.1496 47 74.5861 47H68.8652ZM70.1799 45.9162H74.5684C75.6581 45.9162 76.4931 45.7326 77.0735 45.3654C77.6539 44.9864 77.9441 44.3883 77.9441 43.571C77.9441 42.7655 77.6539 42.1792 77.0735 41.812C76.4931 41.433 75.6581 41.2435 74.5684 41.2435H70.0378V40.1597H74.142C75.1369 40.1597 75.9068 39.9702 76.4517 39.5912C77.0084 39.2121 77.2867 38.6495 77.2867 37.9033C77.2867 37.1452 77.0084 36.5826 76.4517 36.2154C75.9068 35.8364 75.1369 35.6469 74.142 35.6469H70.1799V45.9162ZM85.7954 47.0888C84.8952 47.0888 84.0839 46.8875 83.3614 46.4848C82.6507 46.0702 82.0881 45.5076 81.6735 44.7969C81.2589 44.0744 81.0516 43.2512 81.0516 42.3273C81.0516 41.3916 81.2589 40.5683 81.6735 39.8577C82.0881 39.147 82.6507 38.5903 83.3614 38.1876C84.072 37.7849 84.8834 37.5835 85.7954 37.5835C86.7193 37.5835 87.5366 37.7849 88.2473 38.1876C88.9698 38.5903 89.5324 39.147 89.9351 39.8577C90.3497 40.5683 90.557 41.3916 90.557 42.3273C90.557 43.2512 90.3497 44.0744 89.9351 44.7969C89.5324 45.5076 88.9698 46.0702 88.2473 46.4848C87.5248 46.8875 86.7075 47.0888 85.7954 47.0888ZM85.7954 45.9695C86.4706 45.9695 87.0687 45.8215 87.5899 45.5253C88.1111 45.2174 88.5197 44.791 88.8158 44.2461C89.1238 43.6894 89.2778 43.0498 89.2778 42.3273C89.2778 41.5929 89.1238 40.9533 88.8158 40.4084C88.5197 39.8636 88.1111 39.4431 87.5899 39.147C87.0687 38.839 86.4765 38.685 85.8132 38.685C85.1499 38.685 84.5577 38.839 84.0365 39.147C83.5153 39.4431 83.1008 39.8636 82.7928 40.4084C82.4849 40.9533 82.3309 41.5929 82.3309 42.3273C82.3309 43.0498 82.4849 43.6894 82.7928 44.2461C83.1008 44.791 83.5153 45.2174 84.0365 45.5253C84.5577 45.8215 85.144 45.9695 85.7954 45.9695ZM97.8939 37.5835C98.652 37.5835 99.3153 37.7316 99.8838 38.0277C100.464 38.3119 100.914 38.7502 101.234 39.3424C101.566 39.9347 101.732 40.6809 101.732 41.5811V47H100.47V41.7054C100.47 40.7223 100.221 39.982 99.7239 39.4846C99.2383 38.9752 98.5513 38.7206 97.663 38.7206C96.9997 38.7206 96.4193 38.8568 95.9218 39.1292C95.4362 39.3898 95.0571 39.7748 94.7847 40.2841C94.5241 40.7816 94.3938 41.3856 94.3938 42.0963V47H93.1324V37.6723H94.3405V40.2308L94.1451 39.7511C94.4412 39.0759 94.915 38.5488 95.5665 38.1698C96.2179 37.7789 96.9937 37.5835 97.8939 37.5835ZM108.941 47.0888C108.041 47.0888 107.23 46.8875 106.507 46.4848C105.796 46.0702 105.234 45.5076 104.819 44.7969C104.405 44.0744 104.197 43.2512 104.197 42.3273C104.197 41.3916 104.405 40.5683 104.819 39.8577C105.234 39.147 105.796 38.5903 106.507 38.1876C107.218 37.7849 108.029 37.5835 108.941 37.5835C109.865 37.5835 110.682 37.7849 111.393 38.1876C112.115 38.5903 112.678 39.147 113.081 39.8577C113.495 40.5683 113.703 41.3916 113.703 42.3273C113.703 43.2512 113.495 44.0744 113.081 44.7969C112.678 45.5076 112.115 46.0702 111.393 46.4848C110.67 46.8875 109.853 47.0888 108.941 47.0888ZM108.941 45.9695C109.616 45.9695 110.214 45.8215 110.736 45.5253C111.257 45.2174 111.665 44.791 111.961 44.2461C112.269 43.6894 112.423 43.0498 112.423 42.3273C112.423 41.5929 112.269 40.9533 111.961 40.4084C111.665 39.8636 111.257 39.4431 110.736 39.147C110.214 38.839 109.622 38.685 108.959 38.685C108.296 38.685 107.703 38.839 107.182 39.147C106.661 39.4431 106.246 39.8636 105.938 40.4084C105.631 40.9533 105.477 41.5929 105.477 42.3273C105.477 43.0498 105.631 43.6894 105.938 44.2461C106.246 44.791 106.661 45.2174 107.182 45.5253C107.703 45.8215 108.29 45.9695 108.941 45.9695Z" fill="url(#paint0_linear_25_1500)"/>
</g>
<g clip-path="url(#clip1_25_1500)">
<g filter="url(#filter1_d_25_1500)">
<path fill-rule="evenodd" clip-rule="evenodd" d="M189.442 24.0269L186.912 25.8057L177.092 30.5729L167.729 31.658L165.52 24.7247L157.241 50.7093C156.927 51.6766 157.384 52.0622 158.26 51.5631L165.919 47.2049C166.665 46.7807 167.169 45.7334 167.061 44.8747L167.553 35.2156L178.796 31.0709L186.912 29.6835C186.905 29.6993 186.912 29.7209 186.912 29.7191L193.114 31.7291C193.718 31.9251 193.931 31.6228 193.605 31.0709L189.442 24.0269Z" fill="url(#paint1_linear_25_1500)" stroke="white" stroke-width="0.752713" stroke-linejoin="round"/>
<path fill-rule="evenodd" clip-rule="evenodd" d="M149.072 11.2193C148.304 11.2042 148.333 11.7841 149.283 12.7669L164.337 28.4642L165.495 24.8213L174.844 29.3811L167.154 42.669L182.099 37.6171C182.405 37.5167 182.791 37.2186 182.96 36.9411L185.7 32.423L189.46 23.9912H180.237L175.599 28.5984L167.729 17.3563L150.091 11.4328C149.662 11.2884 149.329 11.2243 149.072 11.2193Z" fill="url(#paint2_linear_25_1500)" stroke="white" stroke-width="0.752713" stroke-linejoin="round"/>
<path fill-rule="evenodd" clip-rule="evenodd" d="M152.061 3.24396C151.216 3.38542 151.055 4.15587 151.762 5.27182L165.025 26.1908L167.144 42.6689L185.684 32.4523L171.028 8.30377C170.769 7.87692 170.169 7.43658 169.688 7.32017L153.132 3.31511C152.708 3.2122 152.342 3.19681 152.061 3.24396Z" fill="url(#paint3_linear_25_1500)" stroke="white" stroke-width="0.752713" stroke-linejoin="round"/>
</g>
</g>
</g>
<defs>
<filter id="filter0_d_25_1500" x="4.11849" y="6.81689" width="137.336" height="45.0098" filterUnits="userSpaceOnUse" color-interpolation-filters="sRGB">
<feFlood flood-opacity="0" result="BackgroundImageFix"/>
<feColorMatrix in="SourceAlpha" type="matrix" values="0 0 0 0 0 0 0 0 0 0 0 0 0 0 0 0 0 0 127 0" result="hardAlpha"/>
<feOffset dy="2.36893"/>
<feGaussianBlur stdDeviation="1.18447"/>
<feComposite in2="hardAlpha" operator="out"/>
<feColorMatrix type="matrix" values="0 0 0 0 0 0 0 0 0 0 0 0 0 0 0 0 0 0 0.25 0"/>
<feBlend mode="normal" in2="BackgroundImageFix" result="effect1_dropShadow_25_1500"/>
<feBlend mode="normal" in="SourceGraphic" in2="effect1_dropShadow_25_1500" result="shape"/>
</filter>
<filter id="filter1_d_25_1500" x="145.785" y="2.84216" width="50.7175" height="54.0535" filterUnits="userSpaceOnUse" color-interpolation-filters="sRGB">
<feFlood flood-opacity="0" result="BackgroundImageFix"/>
<feColorMatrix in="SourceAlpha" type="matrix" values="0 0 0 0 0 0 0 0 0 0 0 0 0 0 0 0 0 0 127 0" result="hardAlpha"/>
<feOffset dy="2.36893"/>
<feGaussianBlur stdDeviation="1.18447"/>
<feComposite in2="hardAlpha" operator="out"/>
<feColorMatrix type="matrix" values="0 0 0 0 0 0 0 0 0 0 0 0 0 0 0 0 0 0 0.25 0"/>
<feBlend mode="normal" in2="BackgroundImageFix" result="effect1_dropShadow_25_1500"/>
<feBlend mode="normal" in="SourceGraphic" in2="effect1_dropShadow_25_1500" result="shape"/>
</filter>
<linearGradient id="paint0_linear_25_1500" x1="0.155334" y1="27.5" x2="146.155" y2="27.5" gradientUnits="userSpaceOnUse">
<stop stop-color="#0F8D42"/>
<stop offset="1" stop-color="#02542D"/>
</linearGradient>
<linearGradient id="paint1_linear_25_1500" x1="157.141" y1="37.9042" x2="193.756" y2="37.9042" gradientUnits="userSpaceOnUse">
<stop stop-color="#359028"/>
<stop offset="0.56" stop-color="#2B782C"/>
<stop offset="1" stop-color="#276033"/>
</linearGradient>
<linearGradient id="paint2_linear_25_1500" x1="148.53" y1="26.9439" x2="189.459" y2="26.9439" gradientUnits="userSpaceOnUse">
<stop stop-color="#359028"/>
<stop offset="0.56" stop-color="#2B782C"/>
<stop offset="1" stop-color="#276033"/>
</linearGradient>
<linearGradient id="paint3_linear_25_1500" x1="151.316" y1="22.9437" x2="185.683" y2="22.9437" gradientUnits="userSpaceOnUse">
<stop stop-color="#359028"/>
<stop offset="0.56" stop-color="#2A7629"/>
<stop offset="1" stop-color="#276033"/>
</linearGradient>
<clipPath id="clip0_25_1500">
<rect width="193.602" height="55" fill="white" transform="translate(0.155334)"/>
</clipPath>
<clipPath id="clip1_25_1500">
<rect width="45.6019" height="48.5631" fill="white" transform="translate(148.155 3.21851)"/>
</clipPath>
</defs>
</svg>
